<svg id="chevron-right" width="12" height="12" viewBox="0 0 12 12" fill="none" xmlns="http://www.w3.org/2000/svg">
<path d="M8.99899 6.23999L5.38599 9.85399C5.33969 9.90065 5.28462 9.93767 5.22395 9.96294C5.16328 9.98821 5.09821 10.0012 5.03249 10.0012C4.96676 10.0012 4.90169 9.98821 4.84102 9.96294C4.78035 9.93767 4.72528 9.90065 4.67899 9.85399C4.58525 9.76023 4.53259 9.63308 4.53259 9.50049C4.53259 9.36791 4.58525 9.24076 4.67899 9.14699L7.82499 5.99999L4.67999 2.85399C4.58891 2.75969 4.53851 2.63339 4.53965 2.50229C4.54079 2.37119 4.59337 2.24579 4.68608 2.15308C4.77878 2.06038 4.90419 2.0078 5.03529 2.00666C5.16638 2.00552 5.29269 2.05591 5.38699 2.14699L8.99999 5.75899L8.99899 6.23999Z" fill="black"/>
</svg>
