<svg
  id="pinned"
  width="10"
  height="10"
  viewBox="0 0 1.26 1.26"
  xmlns="http://www.w3.org/2000/svg"
>
  <path
    d="M0.302 0.809h0.282v0.271c0 0.08 0.034 0.148 0.047 0.148 0.013 0 0.046 -0.068 0.046 -0.148V0.809h0.281c0.036 0 0.063 -0.023 0.063 -0.059 0 -0.022 -0.007 -0.038 -0.022 -0.054l-0.161 -0.175c-0.011 -0.012 -0.018 -0.02 -0.015 -0.042l0.027 -0.192c0.002 -0.011 0.003 -0.017 0.013 -0.024l0.129 -0.094c0.029 -0.021 0.042 -0.047 0.042 -0.071 0 -0.035 -0.028 -0.066 -0.069 -0.066H0.297c-0.041 0 -0.069 0.031 -0.069 0.066 0 0.024 0.013 0.05 0.041 0.071l0.13 0.094c0.01 0.007 0.011 0.013 0.013 0.024l0.027 0.192c0.003 0.022 -0.004 0.03 -0.015 0.042l-0.161 0.175c-0.015 0.016 -0.022 0.032 -0.022 0.054 0 0.035 0.026 0.059 0.063 0.059m0.069 -0.085c-0.005 0 -0.008 -0.003 -0.008 -0.008 0 -0.003 0.002 -0.006 0.005 -0.009l0.135 -0.141c0.017 -0.017 0.024 -0.036 0.022 -0.056l-0.033 -0.254c-0.003 -0.021 -0.009 -0.036 -0.025 -0.046l-0.114 -0.076c-0.004 -0.003 -0.005 -0.005 -0.005 -0.009 0 -0.005 0.004 -0.008 0.008 -0.008h0.547c0.005 0 0.008 0.003 0.008 0.008 0 0.004 -0.001 0.006 -0.005 0.009L0.793 0.21c-0.015 0.011 -0.022 0.026 -0.025 0.046L0.735 0.51c-0.002 0.02 0.005 0.038 0.022 0.056l0.136 0.141a0.013 0.013 0 0 1 0.004 0.009c0 0.005 -0.003 0.008 -0.007 0.008Z"
  />
</svg>